<?xml version="1.0" encoding="UTF-8" standalone="no"?>
<!DOCTYPE svg PUBLIC "-//W3C//DTD SVG 1.1//EN"
 "http://www.w3.org/Graphics/SVG/1.1/DTD/svg11.dtd">
<svg class="railroad-diagram" width="1525" height="171" viewBox="0 0 1525 171">
<g transform="translate(.5 .5)">
<g>
<path d="M20 21v20m10 -20v20m-10 -10h20"></path>
</g>
<g>
<path d="M40 31h0"></path>
<path d="M418.5 31h0"></path>
<path d="M40 31h20"></path>
<g>
<path d="M60 31h102.5"></path>
<path d="M296 31h102.5"></path>
<path d="M162.5 31h10"></path>
<g class="non-terminal">
<path d="M172.5 31h0"></path>
<path d="M286 31h0"></path>
<rect x="172.5" y="20" width="113.5" height="22"></rect>
<text x="229.25" y="35">column-name</text>
</g>
<path d="M286 31h10"></path>
<path d="M172.5 31a10 10 0 0 0 -10 10v10a10 10 0 0 0 10 10"></path>
<g class="terminal">
<path d="M172.5 61h42.5"></path>
<path d="M243.5 61h42.5"></path>
<rect x="215" y="50" width="28.5" height="22" rx="10" ry="10"></rect>
<text x="229.25" y="65">,</text>
</g>
<path d="M286 61a10 10 0 0 0 10 -10v-10a10 10 0 0 0 -10 -10"></path>
</g>
<path d="M398.5 31h20"></path>
<path d="M40 31a10 10 0 0 1 10 10v40a10 10 0 0 0 10 10"></path>
<g>
<path d="M60 91h0"></path>
<path d="M398.5 91h0"></path>
<g class="non-terminal">
<path d="M60 91h0"></path>
<path d="M148 91h0"></path>
<rect x="60" y="80" width="88" height="22"></rect>
<text x="104" y="95">ref-name</text>
</g>
<path d="M148 91h10"></path>
<path d="M158 91h10"></path>
<g class="terminal">
<path d="M168 91h0"></path>
<path d="M196.5 91h0"></path>
<rect x="168" y="80" width="28.5" height="22" rx="10" ry="10"></rect>
<text x="182.25" y="95">(</text>
</g>
<path d="M196.5 91h10"></path>
<path d="M206.5 91h10"></path>
<g>
<path d="M216.5 91h0"></path>
<path d="M350 91h0"></path>
<path d="M216.5 91h10"></path>
<g class="non-terminal">
<path d="M226.5 91h0"></path>
<path d="M340 91h0"></path>
<rect x="226.5" y="80" width="113.5" height="22"></rect>
<text x="283.25" y="95">column-name</text>
</g>
<path d="M340 91h10"></path>
<path d="M226.5 91a10 10 0 0 0 -10 10v10a10 10 0 0 0 10 10"></path>
<g class="terminal">
<path d="M226.5 121h42.5"></path>
<path d="M297.5 121h42.5"></path>
<rect x="269" y="110" width="28.5" height="22" rx="10" ry="10"></rect>
<text x="283.25" y="125">,</text>
</g>
<path d="M340 121a10 10 0 0 0 10 -10v-10a10 10 0 0 0 -10 -10"></path>
</g>
<path d="M350 91h10"></path>
<path d="M360 91h10"></path>
<g class="terminal">
<path d="M370 91h0"></path>
<path d="M398.5 91h0"></path>
<rect x="370" y="80" width="28.5" height="22" rx="10" ry="10"></rect>
<text x="384.25" y="95">)</text>
</g>
</g>
<path d="M398.5 91a10 10 0 0 0 10 -10v-40a10 10 0 0 1 10 -10"></path>
</g>
<path d="M418.5 31h10"></path>
<g class="terminal">
<path d="M428.5 31h0"></path>
<path d="M465.5 31h0"></path>
<rect x="428.5" y="20" width="37" height="22" rx="10" ry="10"></rect>
<text x="447" y="35">-></text>
</g>
<path d="M465.5 31h10"></path>
<path d="M475.5 31h10"></path>
<g>
<path d="M485.5 31h0"></path>
<path d="M909 31h0"></path>
<g class="non-terminal">
<path d="M485.5 31h0"></path>
<path d="M624.5 31h0"></path>
<rect x="485.5" y="20" width="139" height="22"></rect>
<text x="555" y="35">ref-table-name</text>
</g>
<path d="M624.5 31h10"></path>
<path d="M634.5 31h10"></path>
<g class="terminal">
<path d="M644.5 31h0"></path>
<path d="M673 31h0"></path>
<rect x="644.5" y="20" width="28.5" height="22" rx="10" ry="10"></rect>
<text x="658.75" y="35">(</text>
</g>
<path d="M673 31h10"></path>
<path d="M683 31h10"></path>
<g>
<path d="M693 31h0"></path>
<path d="M860.5 31h0"></path>
<path d="M693 31h10"></path>
<g class="non-terminal">
<path d="M703 31h0"></path>
<path d="M850.5 31h0"></path>
<rect x="703" y="20" width="147.5" height="22"></rect>
<text x="776.75" y="35">ref-column-name</text>
</g>
<path d="M850.5 31h10"></path>
<path d="M703 31a10 10 0 0 0 -10 10v10a10 10 0 0 0 10 10"></path>
<g class="terminal">
<path d="M703 61h59.5"></path>
<path d="M791 61h59.5"></path>
<rect x="762.5" y="50" width="28.5" height="22" rx="10" ry="10"></rect>
<text x="776.75" y="65">,</text>
</g>
<path d="M850.5 61a10 10 0 0 0 10 -10v-10a10 10 0 0 0 -10 -10"></path>
</g>
<path d="M860.5 31h10"></path>
<path d="M870.5 31h10"></path>
<g class="terminal">
<path d="M880.5 31h0"></path>
<path d="M909 31h0"></path>
<rect x="880.5" y="20" width="28.5" height="22" rx="10" ry="10"></rect>
<text x="894.75" y="35">)</text>
</g>
</g>
<path d="M909 31h10"></path>
<g>
<path d="M919 31h0"></path>
<path d="M1202 31h0"></path>
<path d="M919 31h20"></path>
<g>
<path d="M939 31h243"></path>
</g>
<path d="M1182 31h20"></path>
<path d="M919 31a10 10 0 0 1 10 10v59a10 10 0 0 0 10 10"></path>
<g>
<path d="M939 110h0"></path>
<path d="M1182 110h0"></path>
<g class="terminal">
<path d="M939 110h0"></path>
<path d="M1035.5 110h0"></path>
<rect x="939" y="99" width="96.5" height="22" rx="10" ry="10"></rect>
<text x="987.25" y="114">on delete</text>
</g>
<path d="M1035.5 110h10"></path>
<g>
<path d="M1045.5 110h0"></path>
<path d="M1182 110h0"></path>
<path d="M1045.5 110a10 10 0 0 0 10 -10v-10a10 10 0 0 1 10 -10"></path>
<g class="terminal">
<path d="M1065.5 80h4.25"></path>
<path d="M1157.75 80h4.25"></path>
<rect x="1069.75" y="69" width="88" height="22" rx="10" ry="10"></rect>
<text x="1113.75" y="84">set null</text>
</g>
<path d="M1162 80a10 10 0 0 1 10 10v10a10 10 0 0 0 10 10"></path>
<path d="M1045.5 110a10 10 0 0 0 10 -10v-40a10 10 0 0 1 10 -10"></path>
<g class="terminal">
<path d="M1065.5 50h4.25"></path>
<path d="M1157.75 50h4.25"></path>
<rect x="1069.75" y="39" width="88" height="22" rx="10" ry="10"></rect>
<text x="1113.75" y="54">restrict</text>
</g>
<path d="M1162 50a10 10 0 0 1 10 10v40a10 10 0 0 0 10 10"></path>
<path d="M1045.5 110h20"></path>
<g class="terminal">
<path d="M1065.5 110h8.5"></path>
<path d="M1153.5 110h8.5"></path>
<rect x="1074" y="99" width="79.5" height="22" rx="10" ry="10"></rect>
<text x="1113.75" y="114">cascade</text>
</g>
<path d="M1162 110h20"></path>
<path d="M1045.5 110a10 10 0 0 1 10 10v10a10 10 0 0 0 10 10"></path>
<g class="terminal">
<path d="M1065.5 140h0"></path>
<path d="M1162 140h0"></path>
<rect x="1065.5" y="129" width="96.5" height="22" rx="10" ry="10"></rect>
<text x="1113.75" y="144">no action</text>
</g>
<path d="M1162 140a10 10 0 0 0 10 -10v-10a10 10 0 0 1 10 -10"></path>
</g>
</g>
<path d="M1182 110a10 10 0 0 0 10 -10v-59a10 10 0 0 1 10 -10"></path>
</g>
<g>
<path d="M1202 31h0"></path>
<path d="M1485 31h0"></path>
<path d="M1202 31h20"></path>
<g>
<path d="M1222 31h243"></path>
</g>
<path d="M1465 31h20"></path>
<path d="M1202 31a10 10 0 0 1 10 10v59a10 10 0 0 0 10 10"></path>
<g>
<path d="M1222 110h0"></path>
<path d="M1465 110h0"></path>
<g class="terminal">
<path d="M1222 110h0"></path>
<path d="M1318.5 110h0"></path>
<rect x="1222" y="99" width="96.5" height="22" rx="10" ry="10"></rect>
<text x="1270.25" y="114">on update</text>
</g>
<path d="M1318.5 110h10"></path>
<g>
<path d="M1328.5 110h0"></path>
<path d="M1465 110h0"></path>
<path d="M1328.5 110a10 10 0 0 0 10 -10v-10a10 10 0 0 1 10 -10"></path>
<g class="terminal">
<path d="M1348.5 80h4.25"></path>
<path d="M1440.75 80h4.25"></path>
<rect x="1352.75" y="69" width="88" height="22" rx="10" ry="10"></rect>
<text x="1396.75" y="84">set null</text>
</g>
<path d="M1445 80a10 10 0 0 1 10 10v10a10 10 0 0 0 10 10"></path>
<path d="M1328.5 110a10 10 0 0 0 10 -10v-40a10 10 0 0 1 10 -10"></path>
<g class="terminal">
<path d="M1348.5 50h4.25"></path>
<path d="M1440.75 50h4.25"></path>
<rect x="1352.75" y="39" width="88" height="22" rx="10" ry="10"></rect>
<text x="1396.75" y="54">restrict</text>
</g>
<path d="M1445 50a10 10 0 0 1 10 10v40a10 10 0 0 0 10 10"></path>
<path d="M1328.5 110h20"></path>
<g class="terminal">
<path d="M1348.5 110h8.5"></path>
<path d="M1436.5 110h8.5"></path>
<rect x="1357" y="99" width="79.5" height="22" rx="10" ry="10"></rect>
<text x="1396.75" y="114">cascade</text>
</g>
<path d="M1445 110h20"></path>
<path d="M1328.5 110a10 10 0 0 1 10 10v10a10 10 0 0 0 10 10"></path>
<g class="terminal">
<path d="M1348.5 140h0"></path>
<path d="M1445 140h0"></path>
<rect x="1348.5" y="129" width="96.5" height="22" rx="10" ry="10"></rect>
<text x="1396.75" y="144">no action</text>
</g>
<path d="M1445 140a10 10 0 0 0 10 -10v-10a10 10 0 0 1 10 -10"></path>
</g>
</g>
<path d="M1465 110a10 10 0 0 0 10 -10v-59a10 10 0 0 1 10 -10"></path>
</g>
<path d="M 1485 31 h 20 m -10 -10 v 20 m 10 -20 v 20"></path>
</g>
</svg>
